<svg width="128" height="128" viewBox="0 0 128 128" fill="none" xmlns="http://www.w3.org/2000/svg">
  <rect width="128" height="128" rx="32" fill="#FFFDF9"/>
  <rect x="11" y="11" width="106" height="106" rx="26" fill="url(#paint0_linear_1_2)"/>
  <path d="M38 43C38 38.5817 41.5817 35 46 35H71C82.598 35 92 44.402 92 56V72C92 82.4934 83.4934 91 73 91H46C41.5817 91 38 87.4183 38 83V43Z" fill="#FFF8EF"/>
  <path d="M86 52H91C97.6274 52 103 57.3726 103 64C103 70.6274 97.6274 76 91 76H86" stroke="#7A4A2E" stroke-width="6" stroke-linecap="round"/>
  <path d="M52 83C55.2 87.2667 60.1333 89.4 66.8 89.4C73.4667 89.4 78.4 87.2667 81.6 83" stroke="#7A4A2E" stroke-width="6" stroke-linecap="round"/>
  <path d="M56 49C52.8 45.2222 53.1111 40.6667 56.9333 37" stroke="#C08A5A" stroke-width="5" stroke-linecap="round"/>
  <path d="M67 47C64.1111 43.4444 64.5556 39.1111 68.3333 35.8" stroke="#C08A5A" stroke-width="5" stroke-linecap="round"/>
  <path d="M77 49C74.1111 45.4444 74.5556 41.1111 78.3333 37.8" stroke="#C08A5A" stroke-width="5" stroke-linecap="round"/>
  <path d="M55 60C57.4 57.8667 60.4222 56.8 64.0667 56.8C67.7111 56.8 70.8444 57.8667 73.4667 60" stroke="#7A4A2E" stroke-width="5" stroke-linecap="round"/>
  <defs>
    <linearGradient id="paint0_linear_1_2" x1="20" y1="14" x2="109" y2="114" gradientUnits="userSpaceOnUse">
      <stop stop-color="#7A4A2E"/>
      <stop offset="1" stop-color="#C08A5A"/>
    </linearGradient>
  </defs>
</svg>
