<svg width="354" height="88" viewBox="0 0 354 88" fill="none" xmlns="http://www.w3.org/2000/svg">
  <rect width="354" height="88" rx="28" fill="#FFFDF9"/>
  <rect x="8" y="8" width="72" height="72" rx="22" fill="url(#paint0_linear_2_6)"/>
  <path d="M27 31C27 27.6863 29.6863 25 33 25H50C58.8366 25 66 32.1634 66 41V51C66 58.1797 60.1797 64 53 64H33C29.6863 64 27 61.3137 27 58V31Z" fill="#FFF8EF"/>
  <path d="M61 38H65C70.5228 38 75 42.4772 75 48C75 53.5228 70.5228 58 65 58H61" stroke="#7A4A2E" stroke-width="4" stroke-linecap="round"/>
  <path d="M37 58C39.6667 61.3333 43.7778 63 49.3333 63C54.8889 63 59 61.3333 61.6667 58" stroke="#7A4A2E" stroke-width="4" stroke-linecap="round"/>
  <path d="M39 35C36.3333 32 36.5926 28.3333 39.7778 25.3333" stroke="#C08A5A" stroke-width="3.4" stroke-linecap="round"/>
  <path d="M48 34C45.5926 31.1852 45.963 27.7531 49.1111 25.1481" stroke="#C08A5A" stroke-width="3.4" stroke-linecap="round"/>
  <path d="M56 35C53.5926 32.1852 53.963 28.7531 57.1111 26.1481" stroke="#C08A5A" stroke-width="3.4" stroke-linecap="round"/>
  <path d="M38 46C40 44.4 42.5185 43.6 45.5556 43.6C48.5926 43.6 51.2037 44.4 53.3889 46" stroke="#7A4A2E" stroke-width="3.4" stroke-linecap="round"/>
  <path d="M105.104 29.448H118.352C127.888 29.448 133.52 35.304 133.52 44.504C133.52 53.704 127.888 59.56 118.352 59.56H105.104V29.448ZM117.904 54.04C123.536 54.04 126.96 50.616 126.96 44.504C126.96 38.392 123.536 34.968 117.904 34.968H111.552V54.04H117.904ZM151.909 60.008C142.821 60.008 136.021 53.32 136.021 44.504C136.021 35.688 142.821 29 151.909 29C160.997 29 167.797 35.688 167.797 44.504C167.797 53.32 160.997 60.008 151.909 60.008ZM151.909 54.264C157.045 54.264 161.237 50.224 161.237 44.504C161.237 38.784 157.045 34.744 151.909 34.744C146.773 34.744 142.581 38.784 142.581 44.504C142.581 50.224 146.773 54.264 151.909 54.264ZM187.304 60.008C178.328 60.008 171.64 53.432 171.64 44.504C171.64 35.576 178.328 29 187.304 29C192.152 29 196.216 30.76 198.888 33.96L194.736 37.784C192.824 35.592 190.432 34.52 187.64 34.52C182.168 34.52 178.2 38.368 178.2 44.504C178.2 50.64 182.168 54.488 187.64 54.488C190.432 54.488 192.824 53.416 194.736 51.176L198.888 55C196.216 58.248 192.152 60.008 187.304 60.008ZM218.121 60.008C209.145 60.008 202.457 53.432 202.457 44.504C202.457 35.576 209.145 29 218.121 29C222.969 29 227.033 30.76 229.705 33.96L225.553 37.784C223.641 35.592 221.249 34.52 218.457 34.52C212.985 34.52 209.017 38.368 209.017 44.504C209.017 50.64 212.985 54.488 218.457 54.488C221.249 54.488 223.641 53.416 225.553 51.176L229.705 55C227.033 58.248 222.969 60.008 218.121 60.008ZM234.736 29.448H257.504V34.632H241.136V41.576H255.592V46.648H241.136V54.376H258.08V59.56H234.736V29.448ZM263.479 29.448H276.727C286.263 29.448 291.895 35.304 291.895 44.504C291.895 53.704 286.263 59.56 276.727 59.56H263.479V29.448ZM276.279 54.04C281.911 54.04 285.335 50.616 285.335 44.504C285.335 38.392 281.911 34.968 276.279 34.968H269.927V54.04H276.279ZM298.059 29.448H304.459V59.56H298.059V29.448ZM333.283 29.448V59.56H328.035L314.259 42.776V59.56H307.939V29.448H313.235L326.963 46.232V29.448H333.283ZM347.474 29.448H353.874V59.56H347.474V29.448Z" fill="#3B2418"/>
  <defs>
    <linearGradient id="paint0_linear_2_6" x1="14" y1="10" x2="71" y2="78" gradientUnits="userSpaceOnUse">
      <stop stop-color="#7A4A2E"/>
      <stop offset="1" stop-color="#C08A5A"/>
    </linearGradient>
  </defs>
</svg>
